HIERARCHY
ROOT Hips
{
	OFFSET 0.000000 0.000000 0.000000
	CHANNELS 6 Xposition Yposition Zposition Zrotation Yrotation Xrotation 
	JOINT LHipJoint
	{
		OFFSET 0.000000 0.000000 0.000000
		CHANNELS 3 Zrotation Yrotation Xrotation
		JOINT LeftUpLeg
		{
			OFFSET 1.363060 -1.794630 0.839290
			CHANNELS 3 Zrotation Yrotation Xrotation
			JOINT LeftLeg
			{
				OFFSET 2.448110 -6.726130 0.000000
				CHANNELS 3 Zrotation Yrotation Xrotation
				JOINT LeftFoot
				{
					OFFSET 2.562200 -7.039590 0.000000
					CHANNELS 3 Zrotation Yrotation Xrotation
					JOINT LeftToeBase
					{
						OFFSET 0.157640 -0.433110 2.322550
						CHANNELS 3 Zrotation Yrotation Xrotation
						End Site
						{
							OFFSET 0.000000 0.000000 0.000000
						}
					}
				}
			}
		}
	}
	JOINT RHipJoint
	{
		OFFSET 0.000000 0.000000 0.000000
		CHANNELS 3 Zrotation Yrotation Xrotation
		JOINT RightUpLeg
		{
			OFFSET -1.305520 -1.794630 0.839290
			CHANNELS 3 Zrotation Yrotation Xrotation
			JOINT RightLeg
			{
				OFFSET -2.542530 -6.985550 0.000000
				CHANNELS 3 Zrotation Yrotation Xrotation
				JOINT RightFoot
				{
					OFFSET -2.568260 -7.056230 0.000000
					CHANNELS 3 Zrotation Yrotation Xrotation
					JOINT RightToeBase
					{
						OFFSET -0.164730 -0.452590 2.363150
						CHANNELS 3 Zrotation Yrotation Xrotation
						End Site
						{
							OFFSET 0.000000 0.000000 0.000000
						}
					}
				}
			}
		}
	}
	JOINT LowerBack
	{
		OFFSET 0.000000 0.000000 0.000000
		CHANNELS 3 Zrotation Yrotation Xrotation
		JOINT Spine
		{
			OFFSET 0.028270 2.035590 -0.193380
			CHANNELS 3 Zrotation Yrotation Xrotation
			JOINT Spine1
			{
				OFFSET 0.056720 2.048850 -0.042750
				CHANNELS 3 Zrotation Yrotation Xrotation
				JOINT Neck
				{
					OFFSET 0.000000 0.000000 0.000000
					CHANNELS 3 Zrotation Yrotation Xrotation
					JOINT Neck1
					{
						OFFSET -0.054170 1.746240 0.172020
						CHANNELS 3 Zrotation Yrotation Xrotation
						JOINT Head
						{
							OFFSET 0.104070 1.761360 -0.123970
							CHANNELS 3 Zrotation Yrotation Xrotation
							End Site
							{
								OFFSET 0.000000 0.000000 0.000000
							}
						}
					}
				}
				JOINT LeftShoulder
				{
					OFFSET 0.000000 0.000000 0.000000
					CHANNELS 3 Zrotation Yrotation Xrotation
					JOINT LeftArm
					{
						OFFSET 3.362410 1.200890 -0.311210
						CHANNELS 3 Zrotation Yrotation Xrotation
						JOINT LeftForeArm
						{
							OFFSET 4.983000 -0.000000 -0.000000
							CHANNELS 3 Zrotation Yrotation Xrotation
							JOINT LeftHand
							{
								OFFSET 3.483560 -0.000000 -0.000000
								CHANNELS 3 Zrotation Yrotation Xrotation
								JOINT LeftFingerBase
								{
									OFFSET 0.000000 0.000000 0.000000
									CHANNELS 3 Zrotation Yrotation Xrotation
									JOINT LeftHandIndex1
									{
										OFFSET 0.715260 -0.000000 -0.000000
										CHANNELS 3 Zrotation Yrotation Xrotation
										End Site
										{
											OFFSET 0.000000 0.000000 0.000000
										}
									}
								}
								JOINT LThumb
								{
									OFFSET 0.000000 0.000000 0.000000
									CHANNELS 3 Zrotation Yrotation Xrotation
									End Site
									{
										OFFSET 0.000000 0.000000 0.000000
									}
								}
							}
						}
					}
				}
				JOINT RightShoulder
				{
					OFFSET 0.000000 0.000000 0.000000
					CHANNELS 3 Zrotation Yrotation Xrotation
					JOINT RightArm
					{
						OFFSET -3.136600 1.374050 -0.404650
						CHANNELS 3 Zrotation Yrotation Xrotation
						JOINT RightForeArm
						{
							OFFSET -5.241900 -0.000000 -0.000000
							CHANNELS 3 Zrotation Yrotation Xrotation
							JOINT RightHand
							{
								OFFSET -3.444170 -0.000000 -0.000000
								CHANNELS 3 Zrotation Yrotation Xrotation
								JOINT RightFingerBase
								{
									OFFSET 0.000000 0.000000 0.000000
									CHANNELS 3 Zrotation Yrotation Xrotation
									JOINT RightHandIndex1
									{
										OFFSET -0.622530 -0.000000 -0.000000
										CHANNELS 3 Zrotation Yrotation Xrotation
										End Site
										{
											OFFSET 0.000000 0.000000 0.000000
										}
									}
								}
								JOINT RThumb
								{
									OFFSET 0.000000 0.000000 0.000000
									CHANNELS 3 Zrotation Yrotation Xrotation
									End Site
									{
										OFFSET 0.000000 0.000000 0.000000
									}
								}
							}
						}
					}
				}
			}
		}
	}
}
MOTION
Frames: 9
Frame Time: 0.008333
1.121724 17.688587 17.452741 -4.026498 -17.459765 22.757976 4.275508 -0.531702 -0.684374 -22.791915 -12.670301 -34.178989 1.631182 13.232062 34.471027 -3.895384 17.764910 -19.773804 0.488600 -4.482100 -12.437000 -5.524533 -0.018520 1.075954 20.461042 22.245464 -61.429039 -4.249229 -17.387843 42.481205 -1.161257 -12.469038 29.556049 -0.005300 0.468100 -1.286200 -3.776303 -6.956584 3.921071 0.879571 -10.062510 -8.122938 0.204380 -5.114307 -12.630120 -7.009271 -9.327656 -16.145493 13.243958 -12.279244 16.899587 5.623200 -4.874300 16.583500 -9.686368 -10.901778 0.094866 -36.639983 -41.216687 -61.750853 16.396059 -18.450692 -2.628405 -0.953029 -0.490019 -25.945349 -6.379468 7.902235 -0.735600 -7.125000 0.000000 0.000000 -26.654800 36.609200 6.041600 8.784251 13.526319 5.744266 27.076827 4.661398 -108.243003 -9.999426 9.281578 -1.490053 -1.736269 1.695892 23.179155 -6.898268 20.397552 -1.555500 7.125000 0.000000 0.000000 15.238000 -10.823900 12.569900 
1.144981 17.653913 17.364047 -4.542204 -17.934229 22.942863 4.379970 -0.533756 -0.710515 -22.238406 -12.783311 -35.034710 1.851465 13.584629 35.433741 -3.828370 17.787967 -20.316161 0.397700 -4.049100 -11.214700 -5.663596 -0.102748 1.185799 21.048361 22.182496 -61.367828 -4.638851 -17.770760 44.257859 -0.915832 -10.284533 26.544587 -0.105600 2.095800 -5.770600 -3.413546 -6.985000 3.993634 1.001474 -10.094775 -8.131668 0.556994 -5.071437 -12.861015 -7.492216 -10.350555 -15.166698 12.886849 -13.833250 16.970580 5.369000 -5.644600 16.669600 -9.697750 -10.867560 0.511659 -40.741682 -41.527840 -57.340867 18.659824 -20.738770 -3.312537 -1.049659 0.294188 -32.488173 0.117433 12.182550 0.167000 -7.125000 0.000000 0.000000 -22.855100 40.227100 2.862400 8.778882 13.585272 5.475275 28.708282 6.133598 -105.640958 -10.402966 9.774488 -1.780312 -2.411739 1.487268 12.918454 -11.722882 23.017136 -3.452300 7.125000 0.000000 0.000000 12.447400 -7.838400 10.900800 
1.165912 17.612474 17.276411 -4.908637 -18.485148 23.186364 4.490514 -0.539045 -0.760796 -21.801657 -12.887936 -35.980363 2.064967 13.937023 36.381135 -3.669375 17.573490 -20.927194 0.293500 -3.483700 -9.628400 -5.814504 -0.185788 1.272762 21.263403 22.346652 -61.362542 -5.153513 -18.218798 46.212482 -0.441495 -9.254029 22.791940 -0.348100 3.791100 -10.489600 -3.214233 -7.060237 3.660350 1.099255 -10.136977 -8.006654 0.776509 -5.052776 -12.387180 -7.854823 -11.390452 -14.542357 12.637621 -15.450965 16.974092 5.159900 -6.401500 16.830200 -9.715871 -10.814491 0.981218 -44.833550 -41.912681 -52.637009 21.002757 -23.279656 -4.283782 -1.246914 1.094747 -38.547933 7.200469 16.394631 1.918200 -7.125000 0.000000 0.000000 -18.310900 44.037000 0.451100 8.714457 13.660139 5.072209 30.293907 8.750640 -106.734030 -11.427978 10.972278 -2.207245 -2.919556 1.377087 6.317256 -16.226117 25.830813 -5.674700 7.125000 0.000000 0.000000 9.996200 -4.561200 9.315400 
1.186843 17.567123 17.197760 -4.791303 -19.358523 23.296592 4.602046 -0.535259 -0.783269 -21.972339 -12.997375 -36.811261 2.251595 14.254310 37.267332 -3.409212 17.193049 -21.862931 0.179600 -2.729400 -7.526200 -5.938253 -0.271399 1.362498 20.858416 22.506988 -61.415368 -5.770073 -18.704246 48.317466 0.062970 -8.952098 19.081800 -0.889900 6.013000 -16.822100 -3.493569 -6.943945 3.435268 1.098181 -9.996038 -7.944061 1.001419 -4.931705 -12.165637 -8.495420 -12.622210 -13.760641 12.562468 -17.337426 16.964032 5.105300 -7.313000 17.069400 -9.760428 -10.676334 1.444222 -49.310498 -42.421011 -48.005761 22.745634 -25.135279 -5.144977 -1.428097 1.744291 -41.667018 12.912008 19.763270 3.909300 -7.125000 0.000000 0.000000 -14.436500 47.317800 -0.842500 8.624199 13.608965 4.866810 34.000588 9.872038 -91.365405 -12.583716 12.414572 -2.641656 -3.559426 0.128875 -14.447785 -23.414249 26.220627 -9.007000 7.125000 0.000000 0.000000 5.898600 -2.850500 5.628300 
1.211475 17.524837 17.131055 -4.855997 -20.258560 23.340406 4.682700 -0.529699 -0.805500 -22.015721 -13.008948 -37.385330 2.417378 14.513548 38.030018 -3.155003 16.811902 -22.746645 0.083700 -1.865700 -5.134600 -6.056994 -0.355547 1.442575 20.788017 22.500217 -61.194972 -6.470305 -19.184730 50.457676 0.855879 -10.159436 14.978695 -1.019800 6.424500 -18.021200 -3.445875 -6.795362 3.220458 1.100990 -9.779662 -7.865783 1.093806 -4.793064 -11.970475 -9.351288 -13.861492 -13.105055 12.517200 -19.233926 17.038392 5.108800 -8.241000 17.526800 -9.784833 -10.578299 1.885106 -53.391950 -43.061590 -44.785797 23.509971 -25.959127 -5.598236 -1.413420 2.318712 -41.494939 17.323494 21.766417 5.641500 -7.125000 0.000000 0.000000 -11.178400 49.445400 -1.239200 8.524938 13.622825 4.579748 36.207503 11.957807 -89.019592 -13.756858 13.752250 -3.088571 -3.829353 -0.334798 -20.524112 -29.091418 26.872470 -12.045100 7.125000 0.000000 0.000000 2.768400 -0.876700 2.728900 
1.237692 17.505915 17.064667 -5.161986 -20.943180 23.342339 4.700334 -0.531542 -0.779175 -21.667940 -13.130351 -37.837349 2.565553 14.714310 38.609200 -3.280016 17.370680 -23.150551 0.077500 -1.795400 -4.940500 -6.197297 -0.449206 1.563000 21.156934 22.242492 -60.621596 -7.147029 -19.597698 52.497651 1.661583 -11.668426 10.856270 -0.788500 5.668600 -15.825700 -3.501492 -7.090125 3.609519 1.483427 -10.310186 -8.058035 2.606662 -4.831975 -12.648075 -9.561919 -14.220008 -12.399106 11.413824 -19.801704 17.405869 4.345800 -8.550400 17.408000 -9.607349 -10.564554 2.217338 -57.650899 -42.350112 -43.463095 23.826718 -26.375439 -5.795900 -1.553336 2.369338 -40.077175 16.485666 23.757528 5.895700 -7.125000 0.000000 0.000000 -12.511800 51.183800 -1.931600 8.607874 13.646343 4.339998 37.298222 14.032619 -87.933544 -13.662774 13.674060 -3.224948 -4.015567 -0.350825 -18.223012 -32.999272 26.717845 -14.115300 7.125000 0.000000 0.000000 0.604600 0.145100 0.606100 
1.263380 17.498409 16.994896 -5.440479 -21.695588 23.440785 4.728421 -0.536992 -0.783305 -21.302123 -13.288498 -38.315046 2.681116 14.886778 39.074675 -3.386887 17.903218 -23.621111 0.083200 -1.860600 -5.120500 -6.314846 -0.516297 1.630022 21.514184 21.849296 -60.011195 -7.750772 -19.938285 54.324048 2.375005 -13.153996 7.040380 -0.264300 3.307300 -9.135400 -3.297048 -7.151719 3.441370 1.680205 -10.401098 -8.060412 3.243418 -4.783847 -12.609468 -9.968267 -14.814004 -11.521265 10.849264 -20.702477 17.364091 3.986400 -9.050300 17.167100 -9.494140 -10.492061 2.564952 -61.984273 -42.476622 -41.005508 24.315865 -27.168142 -6.274418 -1.736368 2.831420 -40.826733 19.827590 27.828592 8.252500 -7.125000 0.000000 0.000000 -10.843300 55.336400 -2.775300 8.573995 13.560185 4.154317 38.570847 15.882838 -88.108269 -12.923138 12.826139 -3.163765 -4.102214 -0.282178 -13.132054 -36.255909 25.116020 -15.271200 7.125000 0.000000 0.000000 -1.453700 -0.363200 -1.444900 
1.286320 17.485195 16.927663 -5.596192 -22.727966 23.614436 4.761239 -0.545867 -0.806851 -21.120602 -13.284130 -38.817906 2.753147 15.018809 39.426522 -3.301257 17.961030 -24.331146 0.043200 -1.342000 -3.690200 -6.395540 -0.560516 1.657130 21.776431 21.373911 -59.563390 -8.268329 -20.203658 55.775205 3.087393 -15.177844 4.649119 -0.406800 4.094500 -11.342700 -3.110408 -6.949390 2.902890 1.689352 -10.074700 -7.949401 3.157922 -4.629502 -12.154752 -10.331450 -15.608560 -10.681336 10.745807 -21.966249 17.212706 3.908700 -9.685000 17.078000 -9.410147 -10.350258 2.900557 -65.976025 -43.204307 -38.572279 24.097755 -27.190053 -6.291780 -1.842757 3.068601 -39.545814 20.332886 30.494922 9.247000 -7.125000 0.000000 0.000000 -11.466300 57.841700 -3.635600 8.434587 13.458128 3.972343 39.645026 17.781901 -93.667722 -11.746240 11.381503 -2.934925 -4.080071 0.090166 -2.885107 -37.211579 22.760842 -14.702500 7.125000 0.000000 0.000000 -2.376700 -2.341700 -2.279600 
1.309577 17.480226 16.871740 -5.926445 -23.621197 23.777924 4.776781 -0.554749 -0.845965 -20.804351 -13.154692 -39.148907 2.803780 15.104845 39.662866 -3.258316 18.064211 -24.859634 0.015200 -0.797000 -2.190500 -6.460465 -0.590984 1.643777 22.343632 20.597361 -58.783993 -8.713716 -20.391467 56.972377 3.821966 -17.395962 2.680744 -0.575300 4.857300 -13.501900 -2.540774 -6.578702 2.230584 1.625282 -9.456028 -7.743325 2.651874 -4.395829 -11.432104 -10.840960 -16.634614 -9.778486 10.880327 -23.555686 16.849291 3.977300 -10.486100 17.016900 -9.342026 -10.168919 3.295222 -70.230074 -44.262721 -35.317594 23.477995 -26.815981 -6.037364 -1.844398 3.216189 -37.847191 19.933598 31.536081 9.337200 -7.125000 0.000000 0.000000 -12.374600 58.663200 -4.174500 8.255552 13.299119 3.800980 40.575776 19.447941 -102.054165 -10.749206 10.120189 -2.740186 -3.987893 0.614388 8.107675 -37.027961 21.299140 -13.918700 7.125000 0.000000 0.000000 -2.501000 -3.787200 -2.332600 
